<svg width="133" height="51" viewBox="0 0 133 51" fill="none" xmlns="http://www.w3.org/2000/svg">
<path d="M36.9219 15.5156C36.776 15.4844 36.6927 15.3854 36.6719 15.2188L36.8906 12.3438C36.901 12.0938 36.9948 11.9688 37.1719 11.9688L48.6094 12.2344L48.5938 11.4062C48.5938 11.1667 48.7083 11.0312 48.9375 11L51.4062 10.7812C51.5833 10.7812 51.6927 10.901 51.7344 11.1406L52.5781 17.7031C52.5781 17.8698 52.4583 17.9635 52.2188 17.9844L49.375 18.2188C48.9583 18.2188 48.7396 18.0156 48.7188 17.6094L48.6719 15.4531L42.5312 15.2812L42.4219 22.7188L50.4844 22.6875C50.6719 22.6875 50.7656 22.7865 50.7656 22.9844L50.6562 25.5156C50.6354 25.7552 50.4948 25.875 50.2344 25.875L42.375 25.6719L42.2812 32.6719L46.3125 32.4375C46.5312 32.4375 46.651 32.5521 46.6719 32.7812L46.8438 35.5312C46.8333 35.6667 46.8125 35.7604 46.7812 35.8125C46.75 35.8646 46.6771 35.8906 46.5625 35.8906L37.2031 36.0781C37.0781 36.0573 36.9844 36.0312 36.9219 36C36.8698 35.9583 36.8385 35.875 36.8281 35.75L36.6562 32.9062C36.6562 32.6979 36.75 32.5833 36.9375 32.5625L38.9062 32.6562L39.0312 15.3438L36.9219 15.5156ZM54.9522 14.8125C54.7647 14.8125 54.671 14.6979 54.671 14.4688L54.7647 11.4062C54.7647 11.2812 54.796 11.2031 54.8585 11.1719C54.921 11.1302 55.0147 11.099 55.1397 11.0781L60.2179 11.2031C60.3325 11.2031 60.4054 11.2344 60.4366 11.2969C60.4679 11.349 60.4887 11.4375 60.4991 11.5625L60.3897 14.0469L60.6241 32.7344L62.7491 32.5625C62.895 32.5625 62.9783 32.6615 62.9991 32.8594L63.1866 35.6875C63.1658 35.8125 63.1293 35.8958 63.0772 35.9375C63.0356 35.9688 62.947 35.9896 62.8116 36L54.3272 35.9062C54.1814 35.9062 54.1085 35.7812 54.1085 35.5312V32.8594C54.1085 32.6615 54.1918 32.5625 54.3585 32.5625L57.3116 32.75V14.625L54.9522 14.8125ZM63.217 18.8125C63.217 18.6042 63.3368 18.5 63.5764 18.5L70.6701 18.3438C70.8576 18.3438 70.9514 18.4583 70.9514 18.6875L71.0295 21.3438C71.0087 21.4792 70.9774 21.5677 70.9357 21.6094C70.8941 21.651 70.8107 21.6719 70.6857 21.6719L68.6389 21.7188L72.7014 33.2031L76.3889 21.6406L74.2482 21.8438C74.0816 21.8438 73.993 21.7552 73.9826 21.5781L74.1232 18.6875C74.1337 18.4583 74.2482 18.3438 74.467 18.3438L81.2951 18.1875C81.4618 18.1979 81.5451 18.3229 81.5451 18.5625L81.3889 21.2656C81.368 21.4844 81.2535 21.5938 81.0451 21.5938L79.6701 21.4688L72.1389 42.7188C72.0555 42.9688 71.9305 43.0938 71.7639 43.0938L68.6701 42.25C68.441 42.2188 68.3264 42.1146 68.3264 41.9375C68.3264 41.8646 68.3472 41.7917 68.3889 41.7188L71.8107 35.1719L70.467 35.2188C70.3316 35.2188 70.217 35.125 70.1232 34.9375L64.8732 21.7969L63.3889 21.8281C63.1701 21.8281 63.0607 21.7031 63.0607 21.4531L63.217 18.8125ZM82.9036 27.2188C82.9036 25.4375 83.0495 23.9583 83.3411 22.7812C83.6432 21.5938 84.0859 20.6458 84.6693 19.9375C85.7526 18.6562 87.5182 18.0156 89.9661 18.0156C91.6745 18.0156 92.9193 18.1875 93.7005 18.5312C94.4922 18.875 95.112 19.2656 95.5599 19.7031C96.0182 20.1406 96.4088 20.7031 96.7318 21.3906C97.3776 22.7969 97.7005 24.5677 97.7005 26.7031C97.7005 28.8281 97.5495 30.4688 97.2474 31.625C96.9557 32.7812 96.513 33.7083 95.9193 34.4062C94.8151 35.6771 93.0286 36.3125 90.5599 36.3125C87.9765 36.3125 86.0963 35.6875 84.9193 34.4375C83.5755 33.0208 82.9036 30.6146 82.9036 27.2188ZM93.5443 32.0781C93.8568 31.6615 94.0911 31.0781 94.2474 30.3281C94.4036 29.5781 94.4818 28.6615 94.4818 27.5781C94.4818 26.4948 94.4245 25.6198 94.3099 24.9531C94.1953 24.2865 94.0338 23.7344 93.8255 23.2969C93.6276 22.849 93.388 22.5 93.1068 22.25C92.8255 21.9896 92.5182 21.7969 92.1849 21.6719C91.6849 21.4844 91.0234 21.3906 90.2005 21.3906C89.3776 21.3906 88.7213 21.4531 88.2318 21.5781C87.7422 21.7031 87.3359 21.9688 87.013 22.375C86.3984 23.1667 86.0911 24.7604 86.0911 27.1562C86.0911 30.5625 87.0078 32.4844 88.8411 32.9219C89.4036 33.0573 90.013 33.125 90.6693 33.125C91.3255 33.125 91.888 33.0573 92.3568 32.9219C92.8359 32.776 93.2318 32.4948 93.5443 32.0781ZM101.059 36.1875C100.892 36.1875 100.809 36.0625 100.809 35.8125V33.1094C100.809 32.8906 100.924 32.7812 101.153 32.7812H102.981V22.2031L100.746 22.3906C100.58 22.3802 100.476 22.2552 100.434 22.0156L100.09 18.6875C100.121 18.4896 100.246 18.3802 100.465 18.3594L105.262 18.0312C105.45 18.0312 105.543 18.151 105.543 18.3906L105.309 20.9688C106.486 19.6667 108.215 18.8021 110.496 18.375C111.184 18.2396 111.845 18.1719 112.481 18.1719C113.116 18.1719 113.444 18.3385 113.465 18.6719L113.653 24.3906C113.653 24.5781 113.575 24.6823 113.418 24.7031L110.481 24.9219C110.356 24.9219 110.257 24.901 110.184 24.8594C110.111 24.8177 110.075 24.7083 110.075 24.5312V21.7656C108.72 21.8802 107.528 22.151 106.496 22.5781L106.325 32.8906L109.043 32.6875C109.21 32.6875 109.299 32.776 109.309 32.9531L109.481 35.5312C109.45 35.7396 109.335 35.8542 109.137 35.875L101.059 36.1875ZM131.355 18.1719C131.636 18.1719 131.787 18.3594 131.808 18.7344L131.605 21.1875C131.584 21.4062 131.464 21.5156 131.246 21.5156L128.433 20.9688C129.548 22.1562 130.105 23.2292 130.105 24.1875C130.105 25.1458 129.975 26.0156 129.714 26.7969C129.464 27.5677 129.053 28.2188 128.48 28.75C127.324 29.8333 125.506 30.375 123.027 30.375C122.048 30.375 121.162 30.2708 120.371 30.0625C120.121 30.6354 119.996 31.1042 119.996 31.4688C119.996 31.8333 120.022 32.0938 120.074 32.25C120.126 32.4062 120.23 32.5312 120.386 32.625C120.668 32.8021 121.095 32.8906 121.668 32.8906C122.251 32.8906 122.798 32.875 123.308 32.8438C124.631 32.7812 125.688 32.75 126.48 32.75C127.282 32.75 128.001 32.8802 128.636 33.1406C129.282 33.401 129.803 33.75 130.199 34.1875C130.97 35.0417 131.355 36.1719 131.355 37.5781C131.355 39.2969 130.673 40.6979 129.308 41.7812C127.808 42.9792 125.704 43.5781 122.996 43.5781C120.735 43.5781 119.079 43.2917 118.027 42.7188C116.85 42.0729 116.261 41.0781 116.261 39.7344C116.261 38.3906 116.86 36.9375 118.058 35.375C117.225 34.9062 116.808 34.151 116.808 33.1094C116.808 32.0573 117.412 30.8021 118.621 29.3438C116.933 28.3646 116.089 26.6823 116.089 24.2969C116.089 22.2031 116.782 20.6042 118.168 19.5C119.407 18.5104 121.11 18.0156 123.277 18.0156C124.402 18.0156 125.433 18.0312 126.371 18.0625C128.558 18.1354 130.22 18.1719 131.355 18.1719ZM126.761 25.4219C126.876 25.0052 126.933 24.5573 126.933 24.0781C126.933 23.599 126.86 23.1562 126.714 22.75C126.579 22.3333 126.365 21.9792 126.074 21.6875C125.449 21.0625 124.548 20.75 123.371 20.75C121.496 20.75 120.272 21.3854 119.699 22.6562C119.501 23.1146 119.402 23.6719 119.402 24.3281C119.402 26.4635 120.725 27.5312 123.371 27.5312C125.225 27.5312 126.355 26.8281 126.761 25.4219ZM125.371 35.8438L121.089 35.9688C120.673 35.9688 120.303 35.9531 119.98 35.9219C119.636 36.7656 119.464 37.5938 119.464 38.4062C119.464 39.2188 119.782 39.7812 120.418 40.0938C121.053 40.4167 121.912 40.5781 122.996 40.5781C124.079 40.5781 124.918 40.5104 125.511 40.375C126.105 40.25 126.605 40.0729 127.011 39.8438C127.824 39.3646 128.23 38.7396 128.23 37.9688C128.23 37.3125 128.095 36.8542 127.824 36.5938C127.313 36.0938 126.496 35.8438 125.371 35.8438Z" fill="#CFE2E2"/>
<rect x="5.00562" y="11" width="8.79541" height="8.79541" fill="#CFE2E2"/>
<rect x="20.2046" y="11" width="8.79541" height="8.79541" fill="#CFE2E2"/>
<path d="M14.1096 27.0863L18.3916 22.8043L16.5785 27.1513L18.6231 31.5997L14.1096 27.0863Z" fill="#CFE2E2"/>
<path d="M9.55762 27.2407L13.8396 22.9587L12.0265 27.3056L14.0711 31.7541L9.55762 27.2407Z" fill="#CFE2E2"/>
<path d="M5.00562 27.0863L9.28759 22.8043L7.4745 27.1513L9.51906 31.5997L5.00562 27.0863Z" fill="#CFE2E2"/>
<path d="M0.453613 27.0863L4.73559 22.8043L2.9225 27.1513L4.96705 31.5997L0.453613 27.0863Z" fill="#CFE2E2"/>
<rect x="20.2046" y="22.8044" width="8.79541" height="8.79541" fill="#CFE2E2"/>
<rect x="5.00562" y="27.3563" width="23.9945" height="8.79541" fill="#CFE2E2"/>
<circle cx="9.40332" cy="36.1518" r="4.39771" fill="#CFE2E2"/>
<circle cx="9.40328" cy="47.1847" r="3.62618" fill="#CFE2E2"/>
</svg>
