<svg width="96" height="34" viewBox="0 0 96 34" fill="none" xmlns="http://www.w3.org/2000/svg">
<path d="M0.921875 5.51562C0.776042 5.48438 0.692708 5.38542 0.671875 5.21875L0.890625 2.34375C0.901042 2.09375 0.994792 1.96875 1.17188 1.96875L12.6094 2.23438L12.5938 1.40625C12.5938 1.16667 12.7083 1.03125 12.9375 1L15.4062 0.78125C15.5833 0.78125 15.6927 0.901042 15.7344 1.14062L16.5781 7.70312C16.5781 7.86979 16.4583 7.96354 16.2188 7.98438L13.375 8.21875C12.9583 8.21875 12.7396 8.01562 12.7188 7.60938L12.6719 5.45312L6.53125 5.28125L6.42188 12.7188L14.4844 12.6875C14.6719 12.6875 14.7656 12.7865 14.7656 12.9844L14.6562 15.5156C14.6354 15.7552 14.4948 15.875 14.2344 15.875L6.375 15.6719L6.28125 22.6719L10.3125 22.4375C10.5312 22.4375 10.651 22.5521 10.6719 22.7812L10.8438 25.5312C10.8333 25.6667 10.8125 25.7604 10.7812 25.8125C10.75 25.8646 10.6771 25.8906 10.5625 25.8906L1.20312 26.0781C1.07812 26.0573 0.984375 26.0312 0.921875 26C0.869792 25.9583 0.838542 25.875 0.828125 25.75L0.65625 22.9062C0.65625 22.6979 0.75 22.5833 0.9375 22.5625L2.90625 22.6562L3.03125 5.34375L0.921875 5.51562ZM18.9522 4.8125C18.7647 4.8125 18.671 4.69792 18.671 4.46875L18.7647 1.40625C18.7647 1.28125 18.796 1.20312 18.8585 1.17188C18.921 1.13021 19.0147 1.09896 19.1397 1.07812L24.2179 1.20312C24.3325 1.20312 24.4054 1.23438 24.4366 1.29688C24.4679 1.34896 24.4887 1.4375 24.4991 1.5625L24.3897 4.04688L24.6241 22.7344L26.7491 22.5625C26.895 22.5625 26.9783 22.6615 26.9991 22.8594L27.1866 25.6875C27.1658 25.8125 27.1293 25.8958 27.0772 25.9375C27.0356 25.9688 26.947 25.9896 26.8116 26L18.3272 25.9062C18.1814 25.9062 18.1085 25.7812 18.1085 25.5312V22.8594C18.1085 22.6615 18.1918 22.5625 18.3585 22.5625L21.3116 22.75V4.625L18.9522 4.8125ZM27.217 8.8125C27.217 8.60417 27.3368 8.5 27.5764 8.5L34.6701 8.34375C34.8576 8.34375 34.9514 8.45833 34.9514 8.6875L35.0295 11.3438C35.0087 11.4792 34.9774 11.5677 34.9357 11.6094C34.8941 11.651 34.8107 11.6719 34.6857 11.6719L32.6389 11.7188L36.7014 23.2031L40.3889 11.6406L38.2482 11.8438C38.0816 11.8438 37.993 11.7552 37.9826 11.5781L38.1232 8.6875C38.1337 8.45833 38.2482 8.34375 38.467 8.34375L45.2951 8.1875C45.4618 8.19792 45.5451 8.32292 45.5451 8.5625L45.3889 11.2656C45.368 11.4844 45.2535 11.5938 45.0451 11.5938L43.6701 11.4688L36.1389 32.7188C36.0555 32.9688 35.9305 33.0938 35.7639 33.0938L32.6701 32.25C32.441 32.2188 32.3264 32.1146 32.3264 31.9375C32.3264 31.8646 32.3472 31.7917 32.3889 31.7188L35.8107 25.1719L34.467 25.2188C34.3316 25.2188 34.217 25.125 34.1232 24.9375L28.8732 11.7969L27.3889 11.8281C27.1701 11.8281 27.0607 11.7031 27.0607 11.4531L27.217 8.8125ZM46.9036 17.2188C46.9036 15.4375 47.0495 13.9583 47.3411 12.7812C47.6432 11.5938 48.0859 10.6458 48.6693 9.9375C49.7526 8.65625 51.5182 8.01562 53.9661 8.01562C55.6745 8.01562 56.9193 8.1875 57.7005 8.53125C58.4922 8.875 59.112 9.26562 59.5599 9.70312C60.0182 10.1406 60.4088 10.7031 60.7318 11.3906C61.3776 12.7969 61.7005 14.5677 61.7005 16.7031C61.7005 18.8281 61.5495 20.4688 61.2474 21.625C60.9557 22.7812 60.513 23.7083 59.9193 24.4062C58.8151 25.6771 57.0286 26.3125 54.5599 26.3125C51.9765 26.3125 50.0963 25.6875 48.9193 24.4375C47.5755 23.0208 46.9036 20.6146 46.9036 17.2188ZM57.5443 22.0781C57.8568 21.6615 58.0911 21.0781 58.2474 20.3281C58.4036 19.5781 58.4818 18.6615 58.4818 17.5781C58.4818 16.4948 58.4245 15.6198 58.3099 14.9531C58.1953 14.2865 58.0338 13.7344 57.8255 13.2969C57.6276 12.849 57.388 12.5 57.1068 12.25C56.8255 11.9896 56.5182 11.7969 56.1849 11.6719C55.6849 11.4844 55.0234 11.3906 54.2005 11.3906C53.3776 11.3906 52.7213 11.4531 52.2318 11.5781C51.7422 11.7031 51.3359 11.9688 51.013 12.375C50.3984 13.1667 50.0911 14.7604 50.0911 17.1562C50.0911 20.5625 51.0078 22.4844 52.8411 22.9219C53.4036 23.0573 54.013 23.125 54.6693 23.125C55.3255 23.125 55.888 23.0573 56.3568 22.9219C56.8359 22.776 57.2318 22.4948 57.5443 22.0781ZM65.059 26.1875C64.8923 26.1875 64.809 26.0625 64.809 25.8125V23.1094C64.809 22.8906 64.9236 22.7812 65.1527 22.7812H66.9809V12.2031L64.7465 12.3906C64.5798 12.3802 64.4757 12.2552 64.434 12.0156L64.0902 8.6875C64.1215 8.48958 64.2465 8.38021 64.4652 8.35938L69.2621 8.03125C69.4496 8.03125 69.5434 8.15104 69.5434 8.39062L69.309 10.9688C70.4861 9.66667 72.2152 8.80208 74.4965 8.375C75.184 8.23958 75.8455 8.17188 76.4809 8.17188C77.1163 8.17188 77.4444 8.33854 77.4652 8.67188L77.6527 14.3906C77.6527 14.5781 77.5746 14.6823 77.4184 14.7031L74.4809 14.9219C74.3559 14.9219 74.2569 14.901 74.184 14.8594C74.1111 14.8177 74.0746 14.7083 74.0746 14.5312V11.7656C72.7205 11.8802 71.5277 12.151 70.4965 12.5781L70.3246 22.8906L73.0434 22.6875C73.21 22.6875 73.2986 22.776 73.309 22.9531L73.4809 25.5312C73.4496 25.7396 73.335 25.8542 73.1371 25.875L65.059 26.1875ZM95.355 8.17188C95.6363 8.17188 95.7873 8.35938 95.8081 8.73438L95.605 11.1875C95.5842 11.4062 95.4644 11.5156 95.2456 11.5156L92.4331 10.9688C93.5477 12.1562 94.105 13.2292 94.105 14.1875C94.105 15.1458 93.9748 16.0156 93.7144 16.7969C93.4644 17.5677 93.0529 18.2188 92.48 18.75C91.3238 19.8333 89.506 20.375 87.0269 20.375C86.0477 20.375 85.1623 20.2708 84.3706 20.0625C84.1206 20.6354 83.9956 21.1042 83.9956 21.4688C83.9956 21.8333 84.0217 22.0938 84.0738 22.25C84.1258 22.4062 84.23 22.5312 84.3863 22.625C84.6675 22.8021 85.0946 22.8906 85.6675 22.8906C86.2508 22.8906 86.7977 22.875 87.3081 22.8438C88.631 22.7812 89.6883 22.75 90.48 22.75C91.2821 22.75 92.0008 22.8802 92.6363 23.1406C93.2821 23.401 93.8029 23.75 94.1988 24.1875C94.9696 25.0417 95.355 26.1719 95.355 27.5781C95.355 29.2969 94.6727 30.6979 93.3081 31.7812C91.8081 32.9792 89.704 33.5781 86.9956 33.5781C84.7352 33.5781 83.079 33.2917 82.0269 32.7188C80.8498 32.0729 80.2613 31.0781 80.2613 29.7344C80.2613 28.3906 80.8602 26.9375 82.0581 25.375C81.2248 24.9062 80.8081 24.151 80.8081 23.1094C80.8081 22.0573 81.4123 20.8021 82.6206 19.3438C80.9331 18.3646 80.0894 16.6823 80.0894 14.2969C80.0894 12.2031 80.7821 10.6042 82.1675 9.5C83.4071 8.51042 85.1102 8.01562 87.2769 8.01562C88.4019 8.01562 89.4331 8.03125 90.3706 8.0625C92.5581 8.13542 94.2196 8.17188 95.355 8.17188ZM90.7613 15.4219C90.8758 15.0052 90.9331 14.5573 90.9331 14.0781C90.9331 13.599 90.8602 13.1562 90.7144 12.75C90.579 12.3333 90.3654 11.9792 90.0738 11.6875C89.4488 11.0625 88.5477 10.75 87.3706 10.75C85.4956 10.75 84.2717 11.3854 83.6988 12.6562C83.5008 13.1146 83.4019 13.6719 83.4019 14.3281C83.4019 16.4635 84.7248 17.5312 87.3706 17.5312C89.2248 17.5312 90.355 16.8281 90.7613 15.4219ZM89.3706 25.8438L85.0894 25.9688C84.6727 25.9688 84.3029 25.9531 83.98 25.9219C83.6363 26.7656 83.4644 27.5938 83.4644 28.4062C83.4644 29.2188 83.7821 29.7812 84.4175 30.0938C85.0529 30.4167 85.9123 30.5781 86.9956 30.5781C88.079 30.5781 88.9175 30.5104 89.5113 30.375C90.105 30.25 90.605 30.0729 91.0113 29.8438C91.8238 29.3646 92.23 28.7396 92.23 27.9688C92.23 27.3125 92.0946 26.8542 91.8238 26.5938C91.3133 26.0938 90.4956 25.8438 89.3706 25.8438Z" fill="#CFE2E2"/>
</svg>
