<svg width="29" height="40" viewBox="0 0 29 40" fill="none" xmlns="http://www.w3.org/2000/svg">
<rect x="5.00562" width="8.79541" height="8.79541" fill="#CFE2E2"/>
<rect x="20.2046" width="8.79541" height="8.79541" fill="#CFE2E2"/>
<path d="M14.1096 16.0863L18.3916 11.8043L16.5785 16.1513L18.6231 20.5997L14.1096 16.0863Z" fill="#CFE2E2"/>
<path d="M9.55762 16.2407L13.8396 11.9587L12.0265 16.3056L14.0711 20.7541L9.55762 16.2407Z" fill="#CFE2E2"/>
<path d="M5.00562 16.0863L9.28759 11.8043L7.4745 16.1513L9.51906 20.5997L5.00562 16.0863Z" fill="#CFE2E2"/>
<path d="M0.453613 16.0863L4.73559 11.8043L2.9225 16.1513L4.96705 20.5997L0.453613 16.0863Z" fill="#CFE2E2"/>
<rect x="20.2046" y="11.8044" width="8.79541" height="8.79541" fill="#CFE2E2"/>
<rect x="5.00562" y="16.3563" width="23.9945" height="8.79541" fill="#CFE2E2"/>
<circle cx="9.40332" cy="25.1518" r="4.39771" fill="#CFE2E2"/>
<circle cx="9.40328" cy="36.1847" r="3.62618" fill="#CFE2E2"/>
</svg>
